HIERARCHY
ROOT root
{
	OFFSET 0.000000 0.000000 0.000000
	CHANNELS 6 Xposition Yposition Zposition Zrotation Yrotation Xrotation
	JOINT lhip
	{
		OFFSET 0.058581 -0.082280 -0.017664
		CHANNELS 3 Zrotation Yrotation Xrotation
		JOINT lknee
		{
			OFFSET 0.043451 -0.386469 0.008037
			CHANNELS 3 Zrotation Yrotation Xrotation
			JOINT lankle
			{
				OFFSET -0.014790 -0.426874 -0.037428
				CHANNELS 3 Zrotation Yrotation Xrotation
				JOINT ltoe
				{
					OFFSET 0.041054 -0.060286 0.122042
					CHANNELS 3 Zrotation Yrotation Xrotation
					End Site
					{
						OFFSET 0.000000 0.000000 0.000000
					}
				}
			}
		}
	}
	JOINT rhip
	{
		OFFSET -0.060310 -0.090513 -0.013543
		CHANNELS 3 Zrotation Yrotation Xrotation
		JOINT rknee
		{
			OFFSET -0.043257 -0.383688 -0.004843
			CHANNELS 3 Zrotation Yrotation Xrotation
			JOINT rankle
			{
				OFFSET 0.019056 -0.420046 -0.034562
				CHANNELS 3 Zrotation Yrotation Xrotation
				JOINT rtoe
				{
					OFFSET -0.034840 -0.062106 0.130323
					CHANNELS 3 Zrotation Yrotation Xrotation
					End Site
					{
						OFFSET 0.000000 0.000000 0.000000
					}
				}
			}
		}
	}
	JOINT lowerback
	{
		OFFSET 0.004439 0.124404 -0.038385
		CHANNELS 3 Zrotation Yrotation Xrotation
		JOINT upperback
		{
			OFFSET 0.004488 0.137956 0.026820
			CHANNELS 3 Zrotation Yrotation Xrotation
			JOINT chest
			{
				OFFSET -0.002265 0.056032 0.002855
				CHANNELS 3 Zrotation Yrotation Xrotation
				JOINT lowerneck
				{
					OFFSET -0.013390 0.211636 -0.033468
					CHANNELS 3 Zrotation Yrotation Xrotation
					JOINT upperneck
					{
						OFFSET 0.010113 0.088937 0.050410
						CHANNELS 3 Zrotation Yrotation Xrotation
						End Site
						{
							OFFSET 0.000000 0.000000 0.000000
						}
					}
				}
				JOINT lclavicle
				{
					OFFSET 0.071702 0.114000 -0.018898
					CHANNELS 3 Zrotation Yrotation Xrotation
					JOINT lshoulder
					{
						OFFSET 0.122921 0.045205 -0.019046
						CHANNELS 3 Zrotation Yrotation Xrotation
						JOINT lelbow
						{
							OFFSET 0.255332 -0.015649 -0.022946
							CHANNELS 3 Zrotation Yrotation Xrotation
							JOINT lwrist
							{
								OFFSET 0.265709 0.012698 -0.007375
								CHANNELS 3 Zrotation Yrotation Xrotation
								End Site
								{
									OFFSET 0.000000 0.000000 0.000000
								}
							}
						}
					}
				}
				JOINT rclavicle
				{
					OFFSET -0.082954 0.112472 -0.023707
					CHANNELS 3 Zrotation Yrotation Xrotation
					JOINT rshoulder
					{
						OFFSET -0.113228 0.046853 -0.008472
						CHANNELS 3 Zrotation Yrotation Xrotation
						JOINT relbow
						{
							OFFSET -0.260127 -0.014369 -0.031269
							CHANNELS 3 Zrotation Yrotation Xrotation
							JOINT rwrist
							{
								OFFSET -0.269108 0.006794 -0.006027
								CHANNELS 3 Zrotation Yrotation Xrotation
								End Site
								{
									OFFSET 0.000000 0.000000 0.000000
								}
							}
						}
					}
				}
			}
		}
	}
}
MOTION
Frames: 10
Frame Time: 0.033333
1.188304 -0.212814 1.007265 83.769633 -7.099305 84.575176 13.456931 5.142956 -33.605181 -16.291906 10.542629 102.742546 -14.239207 1.014415 21.102764 0.000000 -0.000000 0.000000 -1.821829 -7.497415 1.098223 2.235112 7.336362 11.442782 -3.584083 -10.543595 -11.496789 0.000000 -0.000000 0.000000 -2.424279 5.606609 16.810534 1.585151 -2.854407 -9.301386 -0.745395 0.912587 4.036125 -6.071854 1.098081 -2.611419 1.742350 6.586844 5.786753 -22.850444 5.584048 2.205800 -15.071936 11.220671 28.794912 -100.809392 -46.301689 123.789282 45.333409 -30.533935 -10.335170 22.634063 -0.068180 5.497161 13.012164 -11.838565 27.782336 101.725788 43.017424 122.187689 -41.260627 24.797171 -6.299898 
1.188254 -0.213180 1.007099 83.852507 -7.274936 84.396870 13.441027 6.238643 -34.238584 -16.919448 11.642155 100.446075 -13.727888 -1.358420 13.943765 0.000000 -0.000000 0.000000 -2.318931 -8.027598 1.312159 2.551795 7.209741 11.422073 -2.521266 -9.889488 -11.385708 0.000000 -0.000000 0.000000 -2.513894 5.754112 17.035147 1.565051 -2.989356 -9.535545 -0.732176 1.026795 4.001426 -6.069799 0.990708 -2.241139 1.573414 6.236267 5.496975 -23.102441 5.661946 2.109736 -14.813429 11.306374 28.630562 -100.771127 -46.122008 123.313711 44.595030 -31.218400 -9.608442 22.772062 -0.346526 5.499206 12.732207 -11.704174 27.579128 101.710458 42.772997 121.692699 -40.658833 24.945977 -5.727528 
1.187864 -0.213533 1.007276 83.966269 -7.508188 84.318649 13.773370 7.729460 -35.390106 -16.425894 12.868254 97.756846 -12.986374 -1.985393 10.516432 0.000000 -0.000000 0.000000 -3.043209 -8.826627 1.348655 3.083420 7.113483 11.563034 -1.735928 -9.042999 -11.222483 0.000000 -0.000000 0.000000 -2.605701 5.956927 17.190392 1.526037 -3.116756 -9.732504 -0.710522 1.090231 3.939630 -6.227486 0.826830 -2.112646 1.547845 5.999453 5.324166 -23.322396 5.765282 2.044960 -14.622453 11.312265 28.401523 -100.650022 -45.756798 122.933851 44.262698 -31.563461 -9.191277 22.913419 -0.620694 5.614384 12.399003 -11.588396 27.260920 101.754241 42.479504 121.304122 -40.495464 25.186634 -5.302329 
1.187149 -0.213983 1.007675 84.190167 -7.751536 84.163205 14.386019 9.548199 -36.712790 -15.961739 14.085034 94.473118 -13.015473 -2.490564 9.233440 0.000000 -0.000000 0.000000 -3.707952 -9.681817 1.334286 3.398207 6.848806 11.883260 -0.987295 -8.070372 -11.148803 0.000000 -0.000000 0.000000 -2.629826 6.166014 17.422607 1.445817 -3.248815 -9.779389 -0.708876 1.112078 3.901927 -6.382891 0.774169 -2.128144 1.641800 5.719616 5.025312 -23.469503 5.747242 1.974034 -14.526206 11.353207 28.234774 -100.457483 -45.397978 122.582081 44.138003 -31.795931 -8.983799 22.924124 -0.841283 5.690466 12.261095 -11.521380 26.810325 101.671486 42.143389 120.945953 -40.396662 25.460855 -4.887616 
1.186189 -0.214424 1.007881 84.588408 -7.985373 83.754071 15.109384 11.197439 -37.910518 -15.800586 14.722195 90.659341 -13.102890 -2.727800 8.452362 0.000000 -0.000000 0.000000 -4.148531 -10.335982 1.484161 3.458019 6.731665 12.352934 -0.593828 -7.552103 -11.252806 0.000000 -0.000000 0.000000 -2.589346 6.274288 17.984082 1.322781 -3.385219 -9.847892 -0.669152 1.134572 3.973175 -6.625502 0.652239 -2.172413 1.874341 5.585544 4.556434 -23.549412 5.572774 1.950352 -14.512317 11.500803 28.036355 -100.305447 -45.087221 122.482089 44.271041 -31.865742 -8.931077 22.693944 -0.845603 5.735406 12.426035 -11.612436 26.356627 101.577340 41.791265 120.704207 -40.271952 25.580700 -4.634855 
1.185675 -0.215032 1.007778 85.225888 -8.260604 83.094306 15.877163 12.159406 -38.865321 -15.639686 14.199411 86.546266 -12.275835 -2.384831 5.947296 0.000000 -0.000000 0.000000 -4.413957 -10.847286 2.070636 3.178109 6.936559 12.539894 -0.263485 -7.740027 -11.453309 0.000000 -0.000000 0.000000 -2.661658 6.349650 18.556517 1.246380 -3.598576 -9.600392 -0.542624 1.144122 4.002459 -6.917082 0.410327 -1.966244 2.124080 5.580872 3.809601 -23.641501 5.328907 2.142391 -14.438611 11.609609 27.731945 -100.248799 -44.789704 122.678010 44.840484 -31.785576 -8.973387 22.509591 -0.682542 5.810856 12.588267 -11.913791 26.045177 101.570219 41.756248 120.594635 -40.438557 25.754917 -4.421023 
1.184909 -0.215334 1.007050 85.817880 -8.575736 82.468324 16.986787 12.295239 -39.681595 -14.621438 12.912972 82.275528 -10.356190 -0.370564 2.482044 0.000000 -0.000000 0.000000 -4.816125 -11.085153 2.649870 3.154484 7.204917 12.614153 0.174122 -8.287535 -11.624445 0.000000 -0.000000 0.000000 -2.697058 6.468079 19.238722 1.145322 -3.738806 -9.614342 -0.412073 1.124692 4.205388 -7.152093 0.187532 -1.704461 2.258276 5.534891 3.080238 -23.676954 5.203627 2.398700 -14.431558 11.459481 27.455309 -100.128358 -44.470208 122.896654 45.877422 -31.330031 -9.431540 22.365109 -0.527292 5.851874 12.746587 -12.021426 25.960805 101.463750 41.897503 120.587179 -41.110607 25.874778 -4.444900 
1.183519 -0.215091 1.006239 86.024144 -9.034055 82.155270 18.347837 11.923309 -40.209933 -12.902508 11.147728 77.892583 -7.540195 2.960636 -2.231805 0.000000 -0.000000 0.000000 -5.495161 -11.476154 2.585369 3.401417 7.536723 13.202316 0.896841 -8.430371 -11.911838 0.000000 -0.000000 0.000000 -2.801255 6.703688 19.808080 0.999743 -3.731250 -9.883112 -0.275405 1.118935 4.423936 -7.293259 0.167073 -1.433494 2.172321 5.353059 2.585439 -23.747953 5.325920 2.572974 -14.495839 11.190100 27.134223 -100.010013 -44.203785 123.154606 47.028961 -30.661261 -10.064062 22.399874 -0.478754 6.000047 12.760522 -11.723577 25.932437 101.319791 41.868345 120.719613 -42.216517 25.985099 -4.621930 
1.182057 -0.214572 1.005870 85.927505 -9.627591 82.025769 19.797808 11.162685 -40.102780 -10.738968 8.988793 73.161081 -4.145578 7.386951 -8.199043 0.000000 -0.000000 0.000000 -6.356261 -11.775623 2.445268 3.762654 8.072692 13.565042 1.720396 -8.556879 -12.049474 0.000000 -0.000000 0.000000 -3.053397 6.950447 20.258033 0.786807 -3.612043 -10.305641 -0.099181 1.202151 4.664601 -7.368299 0.213834 -1.136573 2.024795 5.180469 2.247267 -23.740531 5.658393 2.692143 -14.640359 10.839193 26.626048 -100.129975 -43.990087 123.910745 48.016997 -29.920225 -10.676621 22.450344 -0.449039 6.270134 12.910791 -11.378440 26.006441 101.078130 41.822768 120.916036 -43.431496 25.936195 -4.937925 
1.180641 -0.213889 1.005975 85.604651 -10.365273 82.040538 21.262979 10.013671 -39.294912 -8.453594 6.647890 67.918570 -1.188774 11.972126 -12.421882 0.000000 -0.000000 0.000000 -7.165247 -11.716098 2.221341 3.977768 8.763208 13.718702 2.216660 -9.014909 -12.148803 0.000000 -0.000000 0.000000 -3.460546 7.142255 20.535614 0.482318 -3.417021 -10.791139 0.064632 1.321355 4.944704 -7.419942 0.305665 -0.866635 1.965849 5.097987 2.054285 -23.540134 6.124660 2.717540 -14.853614 10.449740 26.085559 -100.492677 -43.783816 125.054476 48.777830 -29.107810 -11.260410 22.385957 -0.323452 6.599439 13.335051 -11.177041 26.244305 100.710484 41.994851 121.038415 -44.495266 25.769007 -5.326297 
